<?xml version="1.0" encoding="utf-8"?>
<!-- Generator: Adobe Illustrator 26.4.1, SVG Export Plug-In . SVG Version: 6.00 Build 0)  -->
<svg version="1.1" xmlns="http://www.w3.org/2000/svg" xmlns:xlink="http://www.w3.org/1999/xlink" x="0px" y="0px"
	 viewBox="0 0 425 411" style="enable-background:new 0 0 425 411;" xml:space="preserve">
<g id="Capa_1">
	<g id="Tono_x2F_Saturación_1" transform="matrix(1,0,0,1,-307,-236)">
	</g>
	<g>
		<path d="M91.6,232.9c-0.1-37.3,10-67.8,25.4-96.7c19.1-35.7,45.2-65.4,78.2-88.8c7.6-5.4,15.7-10.1,24-14.3c3-1.5,4.4-0.8,3.8,2.8
			c-4.2,26.7,3.8,50.4,18.1,72.4c8.5,13,18.3,25,25.5,38.8c3.6,6.8,6.3,14,8,21.5c0.6,2.7,0.6,5.2-2.6,6c-3,0.7-2.9-2.2-3.5-3.9
			c-5.8-15.7-15.6-29-25.8-42c-12.5-16-23.8-32.6-28.9-52.6c-1.7-6.7-2.3-13.4-3-20.2c-0.1-1.4,0.6-3.4-0.9-4.2
			c-1.8-0.9-3,0.9-4.3,1.8C190.9,63.6,178,75.8,166,89c-24.7,27.1-42.9,58.1-53.1,93.5c-8.2,28.4-10.2,57.1-1,85.7
			c13.1,40.3,40.7,65.9,81,78.2c2.9,0.9,4.7,0.1,6.3-2.4c3.7-6,6.8-12.2,9.4-18.8c1.3-3.4,2.7-3.9,4.9-0.6c1.3,2,2.7,3.8,4.2,5.6
			c1.4,1.6,1.4,3.3,0.6,5.1c-3.2,7.3-6.9,14.4-11.2,21.1c-1.8,2.8-4,3.7-7.1,3c-51.4-10.8-86.6-40-102.7-90.7
			C92.9,255.8,91.3,242.4,91.6,232.9z"/>
		<path d="M317.3,210.4c-1.6,19.5-6.8,37.3-22.9,50.2c-6.9,5.5-14.8,8.4-23.6,7.9c-5-0.3-8.2,1.7-10.4,6
			c-6.6,13.1-13.3,26.1-20,39.2c-0.7,1.4-0.7,3.9-2.7,3.7c-2-0.1-2.5-2.5-3.1-4.1c-2.7-7.8-2.8-15.2,2.2-22.4
			c5.2-7.6,9.9-15.4,14.1-23.6c1.5-3,2-5.7-0.1-8.9c-9.9-14.7-9.1-30-1.3-45c7.4-14.3,18.3-25.6,33.4-31.6
			c17.1-6.8,30.1,1,33.4,19.1C316.9,204,317.3,207.1,317.3,210.4z M265,204.7c-12.1,10.7-19.2,32.5-10.9,43.3
			C250.6,231.8,256.1,218.4,265,204.7z"/>
		<path d="M115.2,210.1c2.9,0.5,3.9,2.5,5.2,4.2c9.2,11.4,18.2,22.9,27.3,34.4c0.7,0.9,1.4,1.8,2.3,2.7c0.7,0.7,1.5,1.4,2.6,0.9
			c1.3-0.7,1.3-2,0.8-3c-0.8-1.6-1.8-3.2-2.9-4.7c-8.3-11.9-16.6-23.7-24.9-35.6c-1-1.4-2.5-2.8-2-5.2c2.9,0.2,4.1,2.6,5.6,4.3
			c9.3,10.9,18.4,21.9,27.7,32.9c1.4,1.7,3,5.1,5.2,3.5c2.7-1.9-0.4-4.4-1.6-6.2c-7.5-10.6-15.2-21.1-22.8-31.6
			c-1.3-1.8-2.6-3.5-3.7-5.3c-0.8-1.3-2.9-2.8-1-4.2c1.3-1,2.6,1,3.6,2.1c9.6,11,19.2,22.2,28.8,33.2c1.7,2,3.5,6.2,6.4,4
			c2.9-2.3-0.8-5-2.4-7c-8.7-11.6-17.6-23-26.4-34.5c-0.9-1.1-2.8-2.5-1.6-3.8c1.5-1.7,3.1,0.4,4.1,1.4
			c14.8,13.9,29.2,28.3,41.9,44.2c5.1,6.4,7,14.1,4.5,22.1c-2.3,7.2-0.4,13,4.2,18.4c12.9,15.2,25.7,30.6,38.7,45.8
			c2.8,3.3,6.2,6.1,9.5,8.9c13.4,11.6,28,10.4,41.6,2.2c7.1-4.3,13.6-9.6,19.5-15.5c1.3-1.3,2.5-4,4.8-2.1c1.8,1.5,0,3.4-1.1,4.8
			c-10.7,14.7-24.1,25.9-41.6,31.2c-13.4,4.1-24.4-1.9-34.2-10.5c-6.2-5.4-11-12-16-18.5c-10.2-13.4-20.4-26.7-30.4-40.3
			c-3.6-4.8-7.9-7.3-14-6.8c-10.5,0.7-18.7-3.5-24.7-12.3c-11-15.9-21.7-32-31.3-48.8C115.7,213.8,114.9,212.4,115.2,210.1z"/>
		<path d="M152.8,172.9c13.7,22.9,37.8,32.1,59.6,46.8c-2.2-6.7-3.9-12.2-5.8-17.6c-5-13.8-9.9-27.6-13.2-41.9
			c-1.4-5.9-6.1-9-10.2-12.5c-7-5.9-13-12.5-16.9-20.7c-0.8-1.7-2.1-3.4-1.4-5.7c2.1,0.1,2.6,2,3.4,3.3c4.2,6.8,9.8,12.2,16.2,16.8
			c1.4,1,2.8,3.4,4.6,2.3c1.9-1.1,0.9-3.7,0.6-5.6c-1.6-11.9-0.8-23.6,1.4-35.3c1.8-9.6,4.4-19,9.9-27.5
			c-3.3,13.7-5.3,27.4-4.9,41.4c0.4,14.3,3.1,28.1,7.4,43.1c5.4-12.2,10.6-23.2,20-31.8c1.3,2.8-0.5,4.2-1.4,5.8
			c-5.4,9.8-10.4,19.8-13.1,30.7c-1.2,4.8-1.1,9.5,0.7,14.2c3.9,10.1,7.7,20.2,12,31.5c7.1-15.3,13.9-29.4,24.3-42.2
			c1.3,3.2-0.4,5-1.2,6.8c-6.3,13.8-13.2,27.3-17,42.1c-1.2,4.8-1.3,9.4-0.1,14.3c6,24.2,5.8,48.5,0.6,72.8
			c-0.3,1.4-0.2,3.4-1.8,3.8c-1.7,0.4-2.3-1.5-3.4-2.5c-5-4.4-5.9-9.4-4.6-16c2.7-14.3,1.9-28.8,0.1-43.3
			c-1.4-11.5-9.6-17.9-17.7-24.3c-8.4-6.5-18.1-11.3-26.4-18c-8.3-6.7-15.1-14.5-20.2-23.9C153.1,177.9,151.9,175.9,152.8,172.9z"/>
		<path d="M348.4,227.1c-0.8,31.1-8,56.8-24.7,79.4c-1.6,2.1-3.4,4.1-5.1,6.1c-1.7,2-3.6,3.6-6.4,1.5c-3.1-2.2-0.8-4.2,0.4-5.9
			c9.9-15.5,16.2-32.4,19.6-50.4c10.5-55.3-16.9-111.4-67-136.8c-6.9-3.5-9.5-10.4-14.1-15.8c-0.3-0.4-0.5-1.5-0.2-1.8
			c0.8-0.9,1.9-0.5,2.8-0.1c5.6,2.2,11.3,4,16.7,6.7C319.9,134.7,345.7,175,348.4,227.1z"/>
	</g>
</g>
<g id="Capa_2">
</g>
</svg>
